<svg width="24" height="24" viewBox="0 0 24 24" fill="none" xmlns="http://www.w3.org/2000/svg">
<path d="M15.1422 16.3327C15.1445 15.7975 15.2524 15.2681 15.4599 14.7747C15.6673 14.2814 15.9701 13.8339 16.351 13.4579C17.2155 12.6146 17.8099 11.5336 18.059 10.352C18.308 9.1703 18.2004 7.94131 17.7499 6.8209C17.2993 5.70049 16.5261 4.73918 15.5283 4.05894C14.5304 3.37871 13.3531 3.01021 12.1455 3.00021C10.9379 2.99021 9.75461 3.33915 8.74569 4.00276C7.73673 4.66637 6.94766 5.61474 6.47859 6.72753C6.00952 7.84032 5.88158 9.06733 6.11102 10.253C6.34045 11.4386 6.91692 12.5294 7.76726 13.3868C8.16487 13.7709 8.48263 14.2298 8.70229 14.7371C8.92187 15.2444 9.03914 15.7901 9.04718 16.3429M15.1422 16.3327V19.2583C15.1422 19.5277 15.0352 19.7862 14.8447 19.9767C14.6542 20.1671 14.3958 20.2742 14.1264 20.2742H10.063C9.79362 20.2742 9.53527 20.1671 9.3447 19.9767C9.15421 19.7862 9.04718 19.5277 9.04718 19.2583V16.3429M15.1422 16.3327C15.1372 16.2923 15.1372 16.2513 15.1422 16.2108H9.04718C9.05222 16.2547 9.05222 16.299 9.04718 16.3429M13.1105 20.2742H11.0789V21.29H13.1105V20.2742Z" stroke="#01EAFA" stroke-width="1.219" stroke-linecap="round" stroke-linejoin="round"/>
</svg>
