<svg width="24" height="24" viewBox="0 0 24 24" fill="none" xmlns="http://www.w3.org/2000/svg">
<path d="M3.13529 20.6347C3.97843 21.4779 5.33964 21.4779 6.18279 20.6347L19.3886 7.42888C20.2318 6.58574 20.2318 5.22452 19.3886 4.38138C18.5455 3.53824 17.1843 3.53824 16.3411 4.38138L3.13529 17.5872C2.29214 18.4304 2.29214 19.7916 3.13529 20.6347Z" stroke="#01EAFA" stroke-width="1.219" stroke-linecap="round" stroke-linejoin="round"/>
<path d="M17.8756 8.94203L14.8281 5.89453" stroke="#01EAFA" stroke-width="1.219" stroke-linecap="round" stroke-linejoin="round"/>
<path d="M8.21467 2.28876L9.73842 1.8418L9.29145 3.36555L9.73842 4.8893L8.21467 4.44233L6.69092 4.8893L7.13788 3.36555L6.69092 1.8418L8.21467 2.28876Z" stroke="#01EAFA" stroke-width="0.812667" stroke-linecap="round" stroke-linejoin="round"/>
<path d="M4.15119 8.38349L5.67494 7.93652L5.22797 9.46027L5.67494 10.984L4.15119 10.5371L2.62744 10.984L3.07441 9.46027L2.62744 7.93652L4.15119 8.38349Z" stroke="#01EAFA" stroke-width="0.812667" stroke-linecap="round" stroke-linejoin="round"/>
<path d="M19.389 13.4631L20.9127 13.0161L20.4658 14.5399L20.9127 16.0636L19.389 15.6166L17.8652 16.0636L18.3122 14.5399L17.8652 13.0161L19.389 13.4631Z" stroke="#01EAFA" stroke-width="0.812667" stroke-linecap="round" stroke-linejoin="round"/>
</svg>
