<svg width="24" height="24" viewBox="0 0 24 24" fill="none" xmlns="http://www.w3.org/2000/svg">
<path d="M9.1422 14.0316V20.1266C9.1422 20.396 9.03517 20.6543 8.84468 20.8449C8.6542 21.0354 8.39577 21.1424 8.12638 21.1424H6.9277C6.69005 21.1472 6.45825 21.0684 6.27263 20.92C6.08702 20.7715 5.95936 20.5626 5.91187 20.3297L4.47954 13.0157M9.1422 14.0316L9.14236 5.90517M9.1422 14.0316L20.0727 16.7644C20.2223 16.8014 20.3784 16.8039 20.529 16.7716C20.6797 16.7394 20.821 16.6733 20.9424 16.5784C21.0638 16.4835 21.1619 16.3621 21.2295 16.2236C21.2971 16.0852 21.3323 15.9331 21.3324 15.779V4.15793C21.337 4.0013 21.3052 3.84572 21.2397 3.70338C21.1742 3.56103 21.0766 3.43577 20.9546 3.3374C20.8327 3.23903 20.6896 3.17021 20.5366 3.13633C20.3836 3.10245 20.2249 3.10443 20.0727 3.1421L9.14236 5.90517M9.1422 14.0316L7.1107 14.0318C6.03304 14.0318 4.99951 13.6038 4.23749 12.8417C3.47546 12.0797 3.04736 11.0461 3.04736 9.96847C3.04736 8.89087 3.47546 7.85732 4.23749 7.09529C4.99951 6.33327 6.03304 5.90517 7.1107 5.90517H9.14236" stroke="#01EAFA" stroke-width="1.219" stroke-linecap="round" stroke-linejoin="round"/>
</svg>
