<svg width="41" height="40" viewBox="0 0 41 40" fill="none" xmlns="http://www.w3.org/2000/svg">
<path d="M30.5947 31.4334H29.328C27.9947 31.4334 26.728 31.9501 25.7947 32.8834L22.9447 35.7002C21.6447 36.9835 19.528 36.9835 18.228 35.7002L15.378 32.8834C14.4447 31.9501 13.1614 31.4334 11.8447 31.4334H10.5947C7.82806 31.4334 5.59473 29.2168 5.59473 26.4834V8.30005C5.59473 5.56672 7.82806 3.3501 10.5947 3.3501H30.5947C33.3614 3.3501 35.5947 5.56672 35.5947 8.30005V26.4834C35.5947 29.2001 33.3614 31.4334 30.5947 31.4334Z" stroke="#01EAFA" stroke-width="2" stroke-miterlimit="10" stroke-linecap="round" stroke-linejoin="round"/>
<path d="M12.2612 15.2665C12.2612 13.7165 13.5279 12.4497 15.0779 12.4497C16.6279 12.4497 17.8945 13.7165 17.8945 15.2665C17.8945 18.3998 13.4445 18.7331 12.4612 21.7165C12.2612 22.3331 12.7779 22.9498 13.4279 22.9498H17.8945" stroke="#01EAFA" stroke-width="2" stroke-linecap="round" stroke-linejoin="round"/>
<path d="M27.3276 22.9331V13.4165C27.3276 12.9832 27.0443 12.5997 26.6276 12.4831C26.211 12.3664 25.761 12.5331 25.5277 12.8997C24.3277 14.8331 23.0276 17.0331 21.8943 18.9664C21.711 19.2831 21.711 19.6998 21.8943 20.0164C22.0776 20.3331 22.4276 20.533 22.811 20.533H28.9276" stroke="#01EAFA" stroke-width="2" stroke-linecap="round" stroke-linejoin="round"/>
</svg>
