<svg width="41" height="40" viewBox="0 0 41 40" fill="none" xmlns="http://www.w3.org/2000/svg">
<path d="M16.4282 22.9166C16.4282 24.5332 17.6782 25.8332 19.2116 25.8332H22.3448C23.6782 25.8332 24.7615 24.6999 24.7615 23.2832C24.7615 21.7666 24.0949 21.2166 23.1115 20.8666L18.0949 19.1166C17.1115 18.7666 16.4449 18.2332 16.4449 16.6999C16.4449 15.2999 17.5282 14.1499 18.8615 14.1499H21.9949C23.5282 14.1499 24.7782 15.4499 24.7782 17.0666" stroke="#01EAFA" stroke-width="2" stroke-linecap="round" stroke-linejoin="round"/>
<path d="M20.5947 12.5V27.5" stroke="#01EAFA" stroke-width="2" stroke-linecap="round" stroke-linejoin="round"/>
<path d="M37.2615 20.0002C37.2615 29.2002 29.7949 36.6668 20.5949 36.6668C11.3949 36.6668 3.92822 29.2002 3.92822 20.0002C3.92822 10.8002 11.3949 3.3335 20.5949 3.3335" stroke="#01EAFA" stroke-width="2" stroke-linecap="round" stroke-linejoin="round"/>
<path d="M37.2614 10.0002V3.3335H30.5947" stroke="#01EAFA" stroke-width="2" stroke-linecap="round" stroke-linejoin="round"/>
<path d="M28.9282 11.6668L37.2615 3.3335" stroke="#01EAFA" stroke-width="2" stroke-linecap="round" stroke-linejoin="round"/>
</svg>
