<?xml version="1.0" encoding="UTF-8"?>
<svg xmlns="http://www.w3.org/2000/svg" width="40" height="40" viewBox="0 0 40 40" fill="none">
  <path d="M20.0001 13.1499L18.2168 16.2499C17.8168 16.9332 18.1501 17.4999 18.9334 17.4999H21.0501C21.8501 17.4999 22.1668 18.0666 21.7668 18.7499L20.0001 21.8499" stroke="white" stroke-width="2" stroke-linecap="round" stroke-linejoin="round"></path>
  <path d="M13.8334 30.0668V28.1335C10.0001 25.8168 6.8501 21.3001 6.8501 16.5001C6.8501 8.25013 14.4334 1.78346 23.0001 3.65013C26.7668 4.48346 30.0668 6.98346 31.7834 10.4335C35.2668 17.4335 31.6001 24.8668 26.2168 28.1168V30.0501C26.2168 30.5335 26.4001 31.6501 24.6168 31.6501H15.4334C13.6001 31.6668 13.8334 30.9501 13.8334 30.0668Z" stroke="white" stroke-width="2" stroke-linecap="round" stroke-linejoin="round"></path>
  <path d="M14.1665 36.667C17.9832 35.5837 22.0165 35.5837 25.8332 36.667" stroke="white" stroke-width="2" stroke-linecap="round" stroke-linejoin="round"></path>
</svg>
