<?xml version="1.0" encoding="UTF-8"?>
<svg xmlns="http://www.w3.org/2000/svg" width="40" height="40" viewBox="0 0 40 40" fill="none">
  <path d="M30 31.4334H28.7333C27.4 31.4334 26.1333 31.9501 25.2 32.8834L22.35 35.7002C21.05 36.9835 18.9333 36.9835 17.6333 35.7002L14.7833 32.8834C13.85 31.9501 12.5667 31.4334 11.25 31.4334H10C7.23333 31.4334 5 29.2168 5 26.4834V8.30005C5 5.56672 7.23333 3.3501 10 3.3501H30C32.7667 3.3501 35 5.56672 35 8.30005V26.4834C35 29.2001 32.7667 31.4334 30 31.4334Z" stroke="white" stroke-width="2" stroke-miterlimit="10" stroke-linecap="round" stroke-linejoin="round"></path>
  <path d="M11.6665 15.2665C11.6665 13.7165 12.9332 12.4497 14.4832 12.4497C16.0332 12.4497 17.2998 13.7165 17.2998 15.2665C17.2998 18.3998 12.8498 18.7331 11.8665 21.7165C11.6665 22.3331 12.1832 22.9498 12.8332 22.9498H17.2998" stroke="white" stroke-width="2" stroke-linecap="round" stroke-linejoin="round"></path>
  <path d="M26.7329 22.9331V13.4165C26.7329 12.9832 26.4496 12.5997 26.0329 12.4831C25.6163 12.3664 25.1663 12.5331 24.933 12.8997C23.733 14.8331 22.4329 17.0331 21.2996 18.9664C21.1163 19.2831 21.1163 19.6998 21.2996 20.0164C21.4829 20.3331 21.8329 20.533 22.2163 20.533H28.3329" stroke="white" stroke-width="2" stroke-linecap="round" stroke-linejoin="round"></path>
</svg>
