<?xml version="1.0" encoding="UTF-8"?>
<svg xmlns="http://www.w3.org/2000/svg" width="40" height="40" viewBox="0 0 40 40" fill="none">
  <path d="M26.4001 23.6333C27.2383 25.5516 27.4446 27.6869 26.9892 29.7302C26.5338 31.7736 25.4403 33.6191 23.8667 35L19.1667 30.3" stroke="white" stroke-width="2" stroke-linecap="round" stroke-linejoin="round"></path>
  <path d="M16.3667 13.5998C14.4483 12.7616 12.3131 12.5553 10.2697 13.0107C8.22637 13.4661 6.38083 14.5597 5 16.1332L9.7 20.8332" stroke="white" stroke-width="2" stroke-linecap="round" stroke-linejoin="round"></path>
  <path d="M17.8166 31.3168C31.1499 21.6335 34.2832 11.3168 34.9832 6.9168C35.0258 6.65696 35.0063 6.39071 34.9261 6.13988C34.846 5.88906 34.7075 5.66079 34.5222 5.47378C34.3368 5.28678 34.1097 5.14636 33.8596 5.06403C33.6095 4.9817 33.3434 4.9598 33.0832 5.00014C28.7332 5.7168 18.3332 8.78347 8.68322 22.1835L17.8166 31.3168ZM14.4832 32.6501L16.8499 30.2835L9.71656 23.2001L7.34989 25.5668C7.03947 25.8791 6.86523 26.3015 6.86523 26.7418C6.86523 27.1821 7.03947 27.6045 7.34989 27.9168L12.0832 32.6501C12.3955 32.9606 12.8179 33.1348 13.2582 33.1348C13.6985 33.1348 14.121 32.9606 14.4332 32.6501H14.4832Z" stroke="white" stroke-width="2" stroke-linecap="round" stroke-linejoin="round"></path>
</svg>
