<svg width="41" height="40" viewBox="0 0 41 40" fill="none" xmlns="http://www.w3.org/2000/svg">
<path d="M26.9946 23.6333C27.8328 25.5516 28.0391 27.6869 27.5837 29.7302C27.1283 31.7736 26.0348 33.6191 24.4612 35L19.7612 30.3" stroke="#01EAFA" stroke-width="2" stroke-linecap="round" stroke-linejoin="round"/>
<path d="M16.9614 13.5998C15.043 12.7616 12.9078 12.5553 10.8644 13.0107C8.8211 13.4661 6.97556 14.5597 5.59473 16.1332L10.2947 20.8332" stroke="#01EAFA" stroke-width="2" stroke-linecap="round" stroke-linejoin="round"/>
<path d="M18.4113 31.3168C31.7446 21.6335 34.8779 11.3168 35.5779 6.9168C35.6205 6.65696 35.601 6.39071 35.5208 6.13988C35.4407 5.88906 35.3022 5.66079 35.1169 5.47378C34.9315 5.28678 34.7044 5.14636 34.4543 5.06403C34.2042 4.9817 33.9381 4.9598 33.6779 5.00014C29.3279 5.7168 18.9279 8.78347 9.27795 22.1835L18.4113 31.3168ZM15.0779 32.6501L17.4446 30.2835L10.3113 23.2001L7.94462 25.5668C7.6342 25.8791 7.45996 26.3015 7.45996 26.7418C7.45996 27.1821 7.6342 27.6045 7.94462 27.9168L12.6779 32.6501C12.9902 32.9606 13.4126 33.1348 13.8529 33.1348C14.2932 33.1348 14.7157 32.9606 15.0279 32.6501H15.0779Z" stroke="#01EAFA" stroke-width="2" stroke-linecap="round" stroke-linejoin="round"/>
</svg>
